# xmcd
#
# Track frame offsets:
#	150
#	13462
#	24680
#	36189
#	48497
#	63111
#	81131
#	91594
#	104644
#	113993
#	128637
#	138770
#
# Disc length: 2025 seconds
# Revision: 0
# Processed by: cddbd v1.5.2PL0 Copyright (c) Steve Scherf et al.
# Submitted via: dBpowerAMP V12.0
#
DISCID=9a07e70c
DTITLE=Jordanaires, The - Jordanaires, The
DYEAR=1900
DGENRE=Country
TTITLE0=Green Green Grass Of Home
TTITLE1=Ribbon Od Darkness
TTITLE2=Skiü-A-Rope
TTITLE3=Games People Play
TTITLE4=Like A Bird
TTITLE5=You Gave Me A Mountain
TTITLE6=Kentucky
TTITLE7=Blow In His Ear
TTITLE8=Your Love Takes Good Care Of Me
TTITLE9=Mama's Hungry Eyes
TTITLE10=Break My Mind
TTITLE11=I'd Like To Teach The World To Sing
EXTD=
EXTT0=
EXTT1=
EXTT2=
EXTT3=
EXTT4=
EXTT5=
EXTT6=
EXTT7=
EXTT8=
EXTT9=
EXTT10=
EXTT11=
PLAYORDER=
